{
  "asset": {
    "version": "2.0",
    "generator": "THREE.GLTFExporter"
  },
  "scenes": [
    {
      "nodes": [0]
    }
  ],
  "scene": 0,
  "nodes": [
    {
      "children": [1, 2, 3],
      "matrix": [0.01, 0, 0, 0, 0, 0.01, 0, 0, 0, 0, 0.01, 0, 0, 0, 0, 1]
    },
    {
      "matrix": [1, 0, 0, 0, 0, 1, 0, 0, 0, 0, 1, 0, 0, 0.5, 0, 1],
      "name": "cylinder",
      "mesh": 0
    },
    {
      "matrix": [
        0.775696633076301, 5.551115123125783e-17, -0.6311059605439411, 0,
        -0.2759889427859376, 0.8993108309028441, -0.33921988868687597, 0,
        0.5675604257645093, 0.4373099923633533, 0.6975923836203868, 0,
        583.197193487529, 449.59324669874894, 716.7463255620598, 1
      ],
      "camera": 0
    },
    {
      "matrix": [1, 0, 0, 0, 0, 1, 0, 0, 0, 0, 1, 0, 0, 1, 0, 1],
      "name": "Default Ambient Light"
    }
  ],
  "bufferViews": [
    {
      "buffer": 0,
      "byteOffset": 0,
      "byteLength": 18720,
      "target": 34962,
      "byteStride": 12
    },
    {
      "buffer": 0,
      "byteOffset": 18720,
      "byteLength": 18720,
      "target": 34962,
      "byteStride": 12
    },
    {
      "buffer": 0,
      "byteOffset": 37440,
      "byteLength": 12480,
      "target": 34962,
      "byteStride": 8
    },
    {
      "buffer": 0,
      "byteOffset": 49920,
      "byteLength": 17280,
      "target": 34963
    }
  ],
  "buffers": [
    {
      "byteLength": 67200,
      "uri": "data:application/octet-stream;base64,"
    }
  ],
  "accessors": [
    {
      "bufferView": 0,
      "componentType": 5126,
      "count": 1560,
      "max": [0.4000000059604645, 0.5, 0.4000000059604645],
      "min": [-0.4000000059604645, -0.5, -0.4000000059604645],
      "type": "VEC3"
    },
    {
      "bufferView": 1,
      "componentType": 5126,
      "count": 1560,
      "max": [1, 1, 1],
      "min": [-1, -1, -1],
      "type": "VEC3"
    },
    {
      "bufferView": 2,
      "componentType": 5126,
      "count": 1560,
      "max": [1, 1],
      "min": [0, 0],
      "type": "VEC2"
    },
    {
      "bufferView": 3,
      "componentType": 5123,
      "count": 8640,
      "max": [1558],
      "min": [0],
      "type": "SCALAR"
    }
  ],
  "meshes": [
    {
      "primitives": [
        {
          "mode": 4,
          "attributes": {
            "POSITION": 0,
            "NORMAL": 1,
            "TEXCOORD_0": 2
          },
          "extras": {
            "parameters": {
              "width": 0.8,
              "radialSegments": 64,
              "heightSegments": 1,
              "openEnded": false,
              "thetaStart": 0,
              "thetaLength": 360,
              "cornerRadius": 0.05,
              "cornerSegments": 8,
              "hollow": 0,
              "depth": 0.8,
              "height": 1,
              "radiusTop": 0.4,
              "radiusBottom": 0.4,
              "type": "CylinderGeometry"
            },
            "type": "CylinderGeometry"
          },
          "indices": 3
        }
      ]
    }
  ],
  "cameras": [
    {
      "type": "orthographic",
      "orthographic": {
        "xmag": 0.01667700993536669,
        "ymag": 0.016663981021354687,
        "zfar": 100000,
        "znear": 0
      }
    }
  ]
}
